<?xml version="1.0" encoding="UTF-8" standalone="no"?>
<!-- Created with Inkscape (http://www.inkscape.org/) -->

<svg
   id="svg2"
   version="1.1"
   inkscape:version="1.2.2 (b0a8486541, 2022-12-01)"
   xml:space="preserve"
   width="400"
   height="400"
   viewBox="0 0 399.99998 400"
   sodipodi:docname="FONS.svg"
   inkscape:export-filename="fons@1024px.png"
   inkscape:export-xdpi="245.75999"
   inkscape:export-ydpi="245.75999"
   xmlns:inkscape="http://www.inkscape.org/namespaces/inkscape"
   xmlns:sodipodi="http://sodipodi.sourceforge.net/DTD/sodipodi-0.dtd"
   xmlns="http://www.w3.org/2000/svg"
   xmlns:svg="http://www.w3.org/2000/svg"
   xmlns:rdf="http://www.w3.org/1999/02/22-rdf-syntax-ns#"
   xmlns:cc="http://creativecommons.org/ns#"
   xmlns:dc="http://purl.org/dc/elements/1.1/"><metadata
     id="metadata8"><rdf:RDF><cc:Work
         rdf:about=""><dc:format>image/svg+xml</dc:format><dc:type
           rdf:resource="http://purl.org/dc/dcmitype/StillImage" /></cc:Work></rdf:RDF></metadata><defs
     id="defs6"><clipPath
       clipPathUnits="userSpaceOnUse"
       id="clipPath16"><path
         d="M 0,595.28 H 841.89 V 0 H 0 Z"
         id="path18"
         inkscape:connector-curvature="0" /></clipPath></defs><sodipodi:namedview
     pagecolor="#ffffff"
     bordercolor="#666666"
     borderopacity="1"
     objecttolerance="10"
     gridtolerance="10"
     guidetolerance="10"
     inkscape:pageopacity="0"
     inkscape:pageshadow="2"
     inkscape:window-width="3840"
     inkscape:window-height="2075"
     id="namedview4"
     showgrid="true"
     inkscape:zoom="2.4057357"
     inkscape:cx="207.42096"
     inkscape:cy="283.28133"
     inkscape:window-x="2880"
     inkscape:window-y="48"
     inkscape:window-maximized="1"
     inkscape:current-layer="g10"
     inkscape:showpageshadow="2"
     inkscape:pagecheckerboard="0"
     inkscape:deskcolor="#d1d1d1"><inkscape:grid
       type="xygrid"
       id="grid179" /></sodipodi:namedview><g
     id="g10"
     inkscape:groupmode="layer"
     inkscape:label="FONS_FINAL_LOGO"
     transform="matrix(1.25,0,0,-1.25,0,744.1)"><g
       id="g12"
       transform="translate(-260.8783,137.5743)"><g
         id="g14"
         clip-path="url(#clipPath16)"><g
           id="g20"
           transform="translate(338.3945,365.4844)"><path
             d="m 0,0 c 0,1.59 0.993,2.648 2.649,2.648 h 23.112 c 1.788,0 2.914,-1.191 2.914,-2.714 0,-1.588 -1.126,-2.782 -2.914,-2.782 H 6.291 c -0.265,0 -0.396,-0.132 -0.396,-0.396 v -13.709 c 0,-0.264 0.131,-0.397 0.396,-0.397 h 16.225 c 1.788,0 2.914,-1.193 2.914,-2.714 0,-1.59 -1.126,-2.782 -2.914,-2.782 H 6.291 c -0.265,0 -0.396,-0.133 -0.396,-0.332 v -16.357 c 0,-1.986 -1.193,-3.178 -2.915,-3.178 -1.788,0 -2.98,1.192 -2.98,3.178 z"
             style="fill:#2b2b2a;fill-opacity:1;fill-rule:nonzero;stroke:none"
             id="path22"
             inkscape:connector-curvature="0" /></g><g
           id="g24"
           transform="translate(429.0645,364.7227)"><path
             d="m 0,0 c 0,2.186 1.192,3.576 3.245,3.576 1.722,0 2.849,-1.125 3.974,-3.047 l 19.205,-31.72 h 0.265 V 0.596 c 0,1.855 1.125,2.98 2.713,2.98 1.657,0 2.782,-1.125 2.782,-2.98 v -39.137 c 0,-2.186 -1.192,-3.576 -3.245,-3.576 -1.72,0 -2.912,1.125 -4.039,3.045 L 5.695,-7.482 H 5.497 v -31.657 c 0,-1.853 -1.126,-2.978 -2.716,-2.978 -1.655,0 -2.781,1.125 -2.781,2.978 z"
             style="fill:#2b2b2a;fill-opacity:1;fill-rule:nonzero;stroke:none"
             id="path26"
             inkscape:connector-curvature="0" /></g><g
           id="g28"
           transform="translate(472.9082,326.4463)"><path
             d="m 0,0 c -0.928,0.662 -1.457,1.523 -1.457,2.583 0,1.457 1.125,2.781 2.848,2.781 0.662,0 1.324,-0.264 1.853,-0.595 3.246,-2.054 6.889,-3.511 11.194,-3.511 6.357,0 10.064,3.047 10.064,7.682 0,3.841 -2.119,6.225 -9.402,7.351 l -2.186,0.331 c -9.072,1.391 -13.31,5.431 -13.31,12.517 0,8.012 5.693,13.111 14.701,13.111 4.834,0 9.205,-1.391 11.92,-3.046 1.125,-0.728 1.589,-1.589 1.589,-2.583 0,-1.457 -1.127,-2.648 -2.65,-2.648 -0.596,0 -1.324,0.264 -1.92,0.529 -2.848,1.259 -5.828,2.252 -9.139,2.252 -5.695,0 -8.543,-3.112 -8.543,-7.284 0,-3.776 2.319,-6.159 9.338,-7.219 L 17.086,21.92 C 26.158,20.529 30.463,16.489 30.463,9.271 30.463,1.457 24.9,-4.238 13.973,-4.238 8.145,-4.238 3.178,-2.186 0,0"
             style="fill:#2b2b2a;fill-opacity:1;fill-rule:nonzero;stroke:none"
             id="path30"
             inkscape:connector-curvature="0" /></g><g
           id="g32"
           transform="translate(394.8555,325.8359)"><path
             d="m 0,0 c -10.816,0 -19.616,8.799 -19.616,19.616 0,10.817 8.8,19.616 19.616,19.616 10.817,0 19.616,-8.799 19.616,-19.616 C 19.616,8.799 10.817,0 0,0 m 0,44.699 c -13.831,0 -25.083,-11.252 -25.083,-25.083 0,-13.831 11.252,-25.083 25.083,-25.083 13.831,0 25.083,11.252 25.083,25.083 0,13.831 -11.252,25.083 -25.083,25.083"
             style="fill:#2b2b2a;fill-opacity:1;fill-rule:nonzero;stroke:none"
             id="path34"
             inkscape:connector-curvature="0" /></g><g
           id="g36"
           transform="translate(420.9443,449.3057)"><path
             d="m 0,0 c -83.629,0 -151.666,-68.037 -151.666,-151.666 0,-55.753 30.487,-106.892 79.564,-133.461 l 0.566,-0.306 c 0,0 22.245,8 36.89,10.556 3.578,0.624 7.276,1.27 10.82,1.942 2.866,0.544 5.856,0.603 8.748,0.661 4.811,0.093 8.967,0.175 10.879,2.63 1.037,1.332 1.267,3.163 0.708,5.573 -0.294,1.424 -0.891,2.686 -1.417,3.801 -1.21,2.564 -1.661,3.762 0.352,5.323 1.783,1.382 4.087,2.025 7.252,2.025 1.848,0 3.821,-0.213 5.729,-0.419 1.917,-0.207 3.9,-0.422 5.772,-0.422 l 0.156,0.001 c 0.356,-0.005 0.755,-0.008 1.19,-0.008 6.269,0 21.155,0.553 23.938,5.675 0.553,1.019 0.909,2.705 -0.56,4.97 -1.246,1.828 -3.576,3.894 -6.234,5.524 -3.088,1.888 -6.619,2.226 -9.944,2.982 -3.207,0.729 -6.145,1.861 -8.665,3.434 -1.847,1.327 -3.39,3.4 -4.882,5.405 -1.225,1.646 -2.493,3.348 -4.016,4.755 -0.898,0.738 -25.59,23.924 -38.522,36.082 l -0.26,0.243 -8.325,0.596 -7.358,5.468 -21.777,-22.97 -25.812,-0.99 -0.285,-0.341 c -0.183,-0.218 -17.38,-20.775 -23.296,-27.806 -15.971,24.012 -24.406,51.212 -24.406,78.747 0,79.68 64.824,144.504 144.503,144.504 79.679,0 144.504,-64.824 144.504,-144.504 0,-25.948 -6.973,-51.354 -20.18,-73.585 l -4.287,7.537 -22.627,7.074 -9.42,18.315 -10.649,2.954 -7.673,13.573 -5.635,1.61 -11.383,12.227 -19.984,-37.154 -13.106,-6.642 -10.334,-12.626 c 0,0 4.542,-9.167 9.875,-11.083 3.84,-1.379 7.727,-2.849 11.938,-3.792 8.039,-1.799 16.295,-4.044 20.728,-10.674 0.764,-1.092 0.912,-2.147 0.453,-3.225 -1.693,-3.981 -11.06,-7.855 -23.863,-9.869 -0.871,-0.138 -1.768,-0.266 -2.676,-0.396 -5.082,-0.727 -10.336,-1.477 -13.493,-3.998 l -0.131,-0.126 c -1.124,-1.294 -4.295,-6.094 2.104,-13.53 0.585,-0.663 0.853,-1.4 0.735,-2.022 -0.1,-0.532 -0.485,-0.971 -1.141,-1.306 l -0.101,-0.06 c -2.747,-1.835 -9.212,-1.855 -16.698,-1.879 -7.115,-0.022 -15.179,-0.048 -22.233,-1.66 -8.222,-1.88 -15.988,-7.605 -21.054,-12.077 l -1.321,-1.165 1.677,-0.537 c 14.945,-4.79 30.534,-7.219 46.333,-7.219 83.63,0 151.667,68.037 151.667,151.665 C 151.667,-68.037 83.63,0 0,0"
             style="fill:#2b2b2a;fill-opacity:1;fill-rule:nonzero;stroke:none"
             id="path38"
             inkscape:connector-curvature="0" /></g></g></g></g></svg>
