<?xml version="1.0" encoding="UTF-8" standalone="no"?>
<!-- Generator: Adobe Illustrator 23.0.3, SVG Export Plug-In . SVG Version: 6.00 Build 0)  -->

<svg
   version="1.1"
   id="Layer_1"
   x="0px"
   y="0px"
   viewBox="0 0 303.38 303.35997"
   xml:space="preserve"
   sodipodi:docname="FONS_FINAL_LOGO_25.svg"
   width="303.38"
   height="303.35999"
   inkscape:export-filename="../../../../../../../Documents/tmp/fons_logo/fons@96px.png"
   inkscape:export-xdpi="30.377743"
   inkscape:export-ydpi="30.377743"
   xmlns:inkscape="http://www.inkscape.org/namespaces/inkscape"
   xmlns:sodipodi="http://sodipodi.sourceforge.net/DTD/sodipodi-0.dtd"
   xmlns="http://www.w3.org/2000/svg"
   xmlns:svg="http://www.w3.org/2000/svg"><defs
   id="defs7" /><sodipodi:namedview
   id="namedview7"
   pagecolor="#ffffff"
   bordercolor="#000000"
   borderopacity="0.25"
   inkscape:showpageshadow="2"
   inkscape:pageopacity="0.0"
   inkscape:pagecheckerboard="0"
   inkscape:deskcolor="#d1d1d1" />&#10;<path
   d="M 147.63,250.23"
   id="path1" />&#10;<g
   id="g7"
   transform="translate(-269.27,-145.97)">&#10;	<path
   d="m 420.94,145.97 c -83.63,0 -151.67,68.04 -151.67,151.67 0,55.75 30.49,106.89 79.56,133.46 l 0.57,0.31 c 0,0 22.25,-8 36.89,-10.56 3.58,-0.62 7.28,-1.27 10.82,-1.94 2.87,-0.54 5.86,-0.6 8.75,-0.66 4.81,-0.09 8.97,-0.18 10.88,-2.63 1.04,-1.33 1.27,-3.16 0.71,-5.57 -0.29,-1.42 -0.89,-2.69 -1.42,-3.8 -1.21,-2.56 -1.66,-3.76 0.35,-5.32 1.78,-1.38 4.09,-2.03 7.25,-2.03 1.85,0 3.82,0.21 5.73,0.42 1.92,0.21 3.9,0.42 5.77,0.42 h 0.16 c 0.36,0 0.76,0.01 1.19,0.01 6.27,0 21.16,-0.55 23.94,-5.67 0.55,-1.02 0.91,-2.71 -0.56,-4.97 -1.25,-1.83 -3.58,-3.89 -6.23,-5.52 -3.09,-1.89 -6.62,-2.23 -9.94,-2.98 -3.21,-0.73 -6.15,-1.86 -8.67,-3.43 -1.85,-1.33 -3.39,-3.4 -4.88,-5.4 -1.23,-1.65 -2.49,-3.35 -4.02,-4.75 -0.9,-0.74 -25.59,-23.92 -38.52,-36.08 l -0.26,-0.24 -8.33,-0.6 -7.36,-5.47 -21.78,22.97 -25.81,0.99 -0.29,0.34 c -0.18,0.22 -17.38,20.78 -23.3,27.81 -15.97,-24.01 -24.41,-51.21 -24.41,-78.75 0,-79.68 64.82,-144.5 144.5,-144.5 79.68,0 144.5,64.82 144.5,144.5 0,25.95 -6.97,51.35 -20.18,73.58 l -4.29,-7.54 -22.59,-7.1 -9.42,-18.31 -10.65,-2.95 -7.67,-13.57 -5.63,-1.61 -11.38,-12.23 -19.98,37.15 -13.11,6.64 -10.33,12.63 c 0,0 4.54,9.17 9.88,11.08 3.84,1.38 7.73,2.85 11.94,3.79 8.04,1.8 16.29,4.04 20.73,10.67 0.76,1.09 0.91,2.15 0.45,3.23 -1.69,3.98 -11.06,7.85 -23.86,9.87 -0.87,0.14 -1.77,0.27 -2.68,0.4 -5.08,0.73 -10.34,1.48 -13.49,4 l -0.13,0.13 c -1.12,1.29 -4.29,6.09 2.1,13.53 0.58,0.66 0.85,1.4 0.74,2.02 -0.1,0.53 -0.49,0.97 -1.14,1.31 l -0.1,0.06 c -2.75,1.83 -9.21,1.86 -16.7,1.88 -7.11,0.02 -15.18,0.05 -22.23,1.66 -8.22,1.88 -15.99,7.61 -21.05,12.08 l -1.32,1.17 1.68,0.54 c 14.95,4.79 30.53,7.22 46.33,7.22 83.63,0 151.67,-68.04 151.67,-151.67 -0.04,-83.65 -68.08,-151.69 -151.71,-151.69 z"
   id="path2" />&#10;	<g
   id="g6">&#10;		<path
   d="m 342.13,234.56 v 12.8 h 23.29 v 6.02 h -23.29 v 19.13 h -6.53 v -43.96 h 32.32 v 6.02 h -25.79 z"
   id="path3" />&#10;		<path
   d="m 373.36,250.49 c 0,-12.35 10.5,-22.72 22.85,-22.72 12.35,0 22.72,10.37 22.72,22.72 0,12.35 -10.37,22.78 -22.72,22.78 -12.35,0 -22.85,-10.42 -22.85,-22.78 z m 38.97,0 c 0,-9.09 -7.36,-16.77 -16.13,-16.77 -8.77,0 -16.19,7.68 -16.19,16.77 0,9.15 7.42,16.83 16.19,16.83 8.77,0.01 16.13,-7.67 16.13,-16.83 z"
   id="path4" />&#10;		<path
   d="m 427.63,228.54 h 6.46 l 25.28,33.34 v -33.34 h 6.46 v 43.96 h -6.46 l -25.28,-33.34 v 33.34 h -6.46 z"
   id="path5" />&#10;		<path
   d="m 473.84,266.17 3.9,-4.8 c 3.9,3.71 8.51,6.14 14.46,6.14 6.08,0 9.21,-3.2 9.21,-6.72 0,-4.16 -3.65,-5.76 -11.01,-7.42 -8.96,-2.11 -14.91,-4.8 -14.91,-12.73 0,-7.36 6.4,-12.93 15.23,-12.93 6.78,0 11.84,2.5 16.06,6.21 l -3.71,4.86 c -3.71,-3.39 -8.13,-5.38 -12.61,-5.38 -4.93,0 -8.38,3.14 -8.38,6.66 0,4.1 3.78,5.5 11.01,7.23 8.77,2.05 14.85,4.99 14.85,12.86 0,7.42 -5.63,13.06 -16,13.06 -7.35,0 -13.43,-2.56 -18.1,-7.04 z"
   id="path6" />&#10;	</g>&#10;</g>&#10;</svg>
